<svg id="img" xmlns="http://www.w3.org/2000/svg" fill="currentColor" viewBox="0 0 700.201 301.568">
  <path d="m200.881,196.351S383.104,45.639,521.688,45.639c67.568,0,127.365,35.116,127.365,105.145,0,73.176-61.37,105.041-127.365,105.041-79.571,0-121.759-31.773-121.759-31.773-.013-.013-20.124,13.946-20.155,13.888,0,0,41.099,63.628,144.275,63.628,98.255,0,176.152-70.526,176.152-147.637C700.201,70.133,624.271,0,521.688,0,368.154,0,184.366,179.274,184.366,179.274l16.515,17.077Z"/>
  <path d="m499.32,105.217s-182.223,150.712-320.807,150.712c-67.568,0-127.365-35.116-127.365-105.145,0-73.176,61.37-105.041,127.365-105.041,79.571,0,121.759,31.773,121.759,31.773.013.013,20.124-13.946,20.155-13.888,0,0-41.099-63.628-144.275-63.628C77.897,0,0,70.526,0,147.637c0,83.799,75.93,153.931,178.513,153.931,153.534,0,337.323-179.274,337.323-179.274l-16.515-17.077Z"/>
</svg>